<?xml version="1.0" encoding="utf-8"?>
<!-- Generator: Adobe Illustrator 24.2.0, SVG Export Plug-In . SVG Version: 6.00 Build 0)  -->
<svg version="1.1" id="back" xmlns="http://www.w3.org/2000/svg" xmlns:xlink="http://www.w3.org/1999/xlink" x="0px" y="0px"
	 viewBox="0 0 426 386" style="enable-background:new 0 0 426 386;" xml:space="preserve">
<style type="text/css">
	.st0{opacity:0.51;fill:url(#SVGID_1_);}
	.st1{fill:url(#SVGID_2_);}
	.st2{opacity:0.5;fill:url(#SVGID_3_);}
	.st3{opacity:0.65;}
	.st4{fill:url(#SVGID_4_);}
	.st5{opacity:0.64;}
	.st6{fill:url(#SVGID_5_);}
	.st7{opacity:0.54;fill:url(#SVGID_6_);}
	.st8{opacity:0.88;}
	.st9{opacity:0.31;}
	.st10{fill:url(#SVGID_7_);}
	.st11{opacity:0.3;}
	.st12{fill:#439ED5;}
	.st13{opacity:0.62;}
	.st14{fill:url(#SVGID_8_);}
	.st15{opacity:0.4;}
	.st16{opacity:0.51;}
	.st17{fill:url(#SVGID_9_);}
	.st18{opacity:0.5;}
	.st19{fill:url(#SVGID_10_);}
	.st20{fill:url(#SVGID_11_);}
	.st21{fill:url(#SVGID_12_);}
	.st22{opacity:0.55;}
	.st23{fill:url(#SVGID_13_);}
	.st24{fill:url(#SVGID_14_);}
	.st25{opacity:0.6;}
	.st26{fill:url(#SVGID_15_);}
	.st27{fill:url(#SVGID_16_);}
	.st28{fill:url(#SVGID_17_);}
	.st29{fill:url(#SVGID_18_);}
	.st30{fill:url(#SVGID_19_);}
	.st31{opacity:0.78;fill:url(#SVGID_20_);}
	.st32{fill:url(#SVGID_21_);}
	.st33{opacity:0.69;fill:url(#SVGID_22_);}
	.st34{opacity:0.42;fill:url(#SVGID_23_);}
	.st35{opacity:0.58;}
	.st36{fill:#E5C9ED;}
	.st37{opacity:0.59;fill:url(#SVGID_24_);}
	.st38{opacity:0.85;fill:url(#SVGID_25_);}
	.st39{fill:#CCEC22;}
	.st40{fill:url(#SVGID_26_);}
	.st41{fill:url(#SVGID_27_);}
	.st42{fill:#C5C5D8;}
	.st43{fill:#47BCEA;}
	.st44{fill:#292933;}
	.st45{fill:url(#SVGID_28_);}
	.st46{fill:url(#SVGID_29_);}
	.st47{fill:url(#SVGID_30_);}
	.st48{opacity:0.55;fill:url(#SVGID_31_);}
	.st49{fill:#B67FEF;}
	.st50{fill:url(#SVGID_32_);}
	.st51{fill:#AA6FF7;}
	.st52{fill:url(#SVGID_33_);}
	.st53{fill:url(#SVGID_34_);}
	.st54{fill:url(#SVGID_35_);}
	.st55{fill:url(#SVGID_36_);}
	.st56{fill:url(#SVGID_37_);}
	.st57{fill:url(#SVGID_38_);}
</style>
<g>
	
		<radialGradient id="SVGID_1_" cx="-284.4728" cy="-6.0338" r="164.008" gradientTransform="matrix(1.1071 -9.327921e-02 9.628825e-02 1.1464 533.8406 173.3818)" gradientUnits="userSpaceOnUse">
		<stop  offset="0" style="stop-color:#22A4ED;stop-opacity:0.8"/>
		<stop  offset="0.925" style="stop-color:#B62FDC;stop-opacity:0"/>
	</radialGradient>
	<path class="st0" d="M424,175.7c8.9,106.2-75.9,200-189.5,209.5c-113.6,9.6-212.9-68.7-221.8-174.9S88.6,10.4,202.2,0.8
		S415,69.5,424,175.7z"/>
	<g>
		<linearGradient id="SVGID_2_" gradientUnits="userSpaceOnUse" x1="70.3293" y1="332.8989" x2="771.9217" y2="-265.4798">
			<stop  offset="0" style="stop-color:#22A1EA"/>
			<stop  offset="0.2622" style="stop-color:#507DE5"/>
			<stop  offset="0.6038" style="stop-color:#8553DE"/>
			<stop  offset="0.8602" style="stop-color:#A639DA"/>
			<stop  offset="1" style="stop-color:#B32FD9"/>
		</linearGradient>
		<path class="st1" d="M404.8,79.7l-16.5-9.5c0,0,0,0,0,0l-29.2-16.8c-50.4-29.1-112.4-29.1-162.8,0L67.8,127.7c0,0,0,0,0,0
			l-19.4,11.2c-4,2.3-6.5,6.7-6.5,11.3l0.3,160.4c0,5.2,4.7,8.8,9.4,8c-2.1-1.4-3.6-3.8-3.6-6.8l-0.2-160.4c0-3.2,1.2-6.3,3.3-8.7
			c0.8-0.8,1.6-1.4,2.6-2l142.8-82.6c50.4-29.1,112.4-29.1,162.8,0L386.5,74c-0.1,0.1-0.1,0.3-0.2,0.4l14.1,8.2
			c4,2.3,6.5,6.7,6.5,11.3l-0.2,160.4c0,2-0.7,3.7-1.7,5c3.4-0.8,6.2-3.9,6.2-7.9l0.2-160.4C411.3,86.4,408.9,82.1,404.8,79.7z"/>
		<linearGradient id="SVGID_3_" gradientUnits="userSpaceOnUse" x1="55.519" y1="284.9196" x2="835.7321" y2="-116.4">
			<stop  offset="0" style="stop-color:#22A1EA"/>
			<stop  offset="0.2622" style="stop-color:#507DE5"/>
			<stop  offset="0.6038" style="stop-color:#8553DE"/>
			<stop  offset="0.8602" style="stop-color:#A639DA"/>
			<stop  offset="1" style="stop-color:#B32FD9"/>
		</linearGradient>
		<path class="st2" d="M400.4,82l-41.2-23.7c-50.4-29.1-112.4-29.1-162.8,0L53.6,140.9c-4,2.3-6.5,6.7-6.5,11.4l0.3,160.4
			c0,6.3,6.8,10.2,12.2,7l152.1-87.9c41-23.7,91.4-23.7,132.4,0l50.5,29.1c5.4,3.1,12.2-0.8,12.2-7l0.3-160.4
			C406.9,88.7,404.4,84.4,400.4,82z"/>
		<g class="st3">
			<linearGradient id="SVGID_4_" gradientUnits="userSpaceOnUse" x1="66.0972" y1="338.9236" x2="387.6173" y2="64.7034">
				<stop  offset="0" style="stop-color:#22A1EA"/>
				<stop  offset="0.2622" style="stop-color:#507DE5"/>
				<stop  offset="0.6038" style="stop-color:#8553DE"/>
				<stop  offset="0.8602" style="stop-color:#A639DA"/>
				<stop  offset="1" style="stop-color:#B32FD9"/>
			</linearGradient>
			<path class="st4" d="M55.4,321.6c-1.5,0-3.1-0.4-4.5-1.2c-2.8-1.6-4.5-4.5-4.5-7.8l-0.3-160.4c0-5,2.6-9.6,6.9-12.1l142.8-82.6
				c50.5-29.2,113.2-29.2,163.6,0l41.2,23.7c4.3,2.5,6.9,7.1,6.9,12.1l-0.3,160.4c0,3.2-1.7,6.1-4.5,7.8c-2.8,1.6-6.1,1.6-8.9,0
				l-50.5-29.1c-40.6-23.5-91-23.5-131.6,0L59.9,320.4C58.5,321.2,57,321.6,55.4,321.6z M277.7,37.3c-28,0-56,7.2-81,21.7L54,141.6
				c-3.8,2.2-6.1,6.3-6.1,10.6l0.3,160.4c0,2.6,1.4,5,3.7,6.3c2.3,1.3,5,1.3,7.3,0L211.1,231c41.1-23.8,92.1-23.8,133.2,0l50.5,29.1
				c2.3,1.3,5,1.3,7.3,0c2.3-1.3,3.7-3.7,3.7-6.3l0.3-160.4c0-4.4-2.3-8.5-6.1-10.6L358.7,59C333.8,44.6,305.7,37.3,277.7,37.3z"/>
		</g>
		<g class="st5">
			<linearGradient id="SVGID_5_" gradientUnits="userSpaceOnUse" x1="51.8648" y1="334.9515" x2="396.7696" y2="40.787">
				<stop  offset="0" style="stop-color:#22A1EA"/>
				<stop  offset="0.2622" style="stop-color:#507DE5"/>
				<stop  offset="0.6038" style="stop-color:#8553DE"/>
				<stop  offset="0.8602" style="stop-color:#A639DA"/>
				<stop  offset="1" style="stop-color:#B32FD9"/>
			</linearGradient>
			<path class="st6" d="M31.9,306.8c-1.5,0-3-0.4-4.4-1.2c-2.8-1.6-4.4-4.5-4.4-7.7l-0.3-159.2c0-4.9,2.6-9.5,6.8-11.9l164.1-95.3
				c49.8-28.8,111.7-28.8,161.5,0l6.3,3.6l0,0l0,0l57.6,33.1c4.2,2.4,6.9,7,6.8,11.9l-0.3,159.2c0,3.2-1.7,6.1-4.4,7.7
				c-2.8,1.6-6.1,1.6-8.8,0l-0.7-0.4c-0.4-0.2-0.5-0.7-0.3-1.1c0.2-0.4,0.7-0.5,1.1-0.3l0.7,0.4c2.3,1.3,5,1.3,7.2,0
				c2.3-1.3,3.6-3.6,3.6-6.3l0.3-159.2c0-4.3-2.3-8.3-6-10.5L396,56.8l-0.1,0.2l-0.1-0.1l-41.3-23.9c-49.3-28.5-110.6-28.5-159.9,0
				L30.5,128.2c-3.7,2.2-6,6.2-6,10.5l0.3,159.2c0,2.6,1.4,5,3.6,6.3c2.3,1.3,5,1.3,7.2,0l6.5-3.8c0.4-0.2,0.9-0.1,1.1,0.3
				c0.2,0.4,0.1,0.9-0.3,1.1l-6.5,3.8C34.9,306.4,33.4,306.8,31.9,306.8z"/>
		</g>
	</g>
	<linearGradient id="SVGID_6_" gradientUnits="userSpaceOnUse" x1="54.2262" y1="199.6492" x2="539.3052" y2="199.6492">
		<stop  offset="0" style="stop-color:#22A3EC"/>
		<stop  offset="0.2509" style="stop-color:#4C82E7;stop-opacity:0.5424"/>
		<stop  offset="0.5484" style="stop-color:#8258E1;stop-opacity:0"/>
	</linearGradient>
	<path class="st7" d="M358.4,184.8l-21.6,10.1c-39.6-19.8-86.6-18.5-125.2,3.8l-63.4,36.6l-94,47.5V188c0,0,50.6-18.9,60.8-21.9
		c30.4-8.7,55.8,36,83.4,23.2c23.1-10.6,51.7-71.5,73.4-72.9C303.1,114.6,321.8,187.7,358.4,184.8z"/>
	<g class="st8">
		<g class="st9">
			
				<linearGradient id="SVGID_7_" gradientUnits="userSpaceOnUse" x1="2629.342" y1="59.1804" x2="2629.342" y2="165.5596" gradientTransform="matrix(-1 0 0 1 2901.6182 0)">
				<stop  offset="0.3296" style="stop-color:#22A3EC;stop-opacity:0"/>
				<stop  offset="0.7877" style="stop-color:#22A3EC"/>
				<stop  offset="0.986" style="stop-color:#22A3EC;stop-opacity:0"/>
			</linearGradient>
			<polygon class="st10" points="271.6,165.6 271.2,59.2 272.9,59.2 273.3,165.6 			"/>
		</g>
		<g class="st11">
			
				<rect x="271.7" y="171.7" transform="matrix(1 -2.840991e-03 2.840991e-03 1 -0.4951 0.7749)" class="st12" width="1.7" height="5.9"/>
		</g>
		<g class="st13">
			
				<linearGradient id="SVGID_8_" gradientUnits="userSpaceOnUse" x1="2646.7437" y1="61.3521" x2="2646.7437" y2="167.7314" gradientTransform="matrix(-1 0 0 1 2901.6182 0)">
				<stop  offset="0" style="stop-color:#22A3EC;stop-opacity:0"/>
				<stop  offset="0.7151" style="stop-color:#22A3EC"/>
				<stop  offset="0.986" style="stop-color:#22A3EC;stop-opacity:0"/>
			</linearGradient>
			<polygon class="st14" points="254.2,167.7 253.8,61.4 255.5,61.4 255.9,167.7 			"/>
		</g>
		<g class="st15">
			
				<rect x="254.3" y="173.9" transform="matrix(1 -2.841359e-03 2.841359e-03 1 -0.5014 0.7256)" class="st12" width="1.7" height="5.9"/>
		</g>
		<g class="st16">
			
				<linearGradient id="SVGID_9_" gradientUnits="userSpaceOnUse" x1="2664.125" y1="66.6752" x2="2664.125" y2="173.0545" gradientTransform="matrix(-1 0 0 1 2901.6182 0)">
				<stop  offset="0" style="stop-color:#22A3EC;stop-opacity:0"/>
				<stop  offset="0.4637" style="stop-color:#22A3EC"/>
				<stop  offset="0.8966" style="stop-color:#22A3EC;stop-opacity:0"/>
			</linearGradient>
			<polygon class="st17" points="236.9,173.1 236.4,66.7 238.1,66.7 238.5,173 			"/>
		</g>
		<g class="st18">
			
				<rect x="236.9" y="179.2" transform="matrix(1 -2.840991e-03 2.840991e-03 1 -0.5166 0.6761)" class="st12" width="1.7" height="5.9"/>
		</g>
		<g class="st16">
			
				<linearGradient id="SVGID_10_" gradientUnits="userSpaceOnUse" x1="2681.5259" y1="73.59" x2="2681.5259" y2="179.9693" gradientTransform="matrix(-1 0 0 1 2901.6182 0)">
				<stop  offset="0" style="stop-color:#22A3EC;stop-opacity:0"/>
				<stop  offset="0.2737" style="stop-color:#22A3EC"/>
				<stop  offset="0.8575" style="stop-color:#22A3EC;stop-opacity:0"/>
			</linearGradient>
			<polygon class="st19" points="219.5,180 219,73.6 220.7,73.6 221.1,180 			"/>
		</g>
		<g class="st18">
			
				<rect x="219.5" y="186.1" transform="matrix(1 -2.840991e-03 2.840991e-03 1 -0.5363 0.6267)" class="st12" width="1.7" height="5.9"/>
		</g>
		<g>
			
				<linearGradient id="SVGID_11_" gradientUnits="userSpaceOnUse" x1="2698.907" y1="82.0752" x2="2698.907" y2="188.4544" gradientTransform="matrix(-1 0 0 1 2901.6182 0)">
				<stop  offset="0.2011" style="stop-color:#22A3EC;stop-opacity:0"/>
				<stop  offset="0.6313" style="stop-color:#22A3EC"/>
				<stop  offset="0.986" style="stop-color:#22A3EC;stop-opacity:0"/>
			</linearGradient>
			<polygon class="st20" points="202.1,188.5 201.7,82.1 203.3,82.1 203.8,188.4 			"/>
		</g>
		<g class="st18">
			
				<rect x="202.1" y="194.6" transform="matrix(1 -2.840991e-03 2.840991e-03 1 -0.5604 0.5774)" class="st12" width="1.7" height="5.9"/>
		</g>
		<g>
			
				<linearGradient id="SVGID_12_" gradientUnits="userSpaceOnUse" x1="2716.2883" y1="92.1413" x2="2716.2883" y2="198.5206" gradientTransform="matrix(-1 0 0 1 2901.6182 0)">
				<stop  offset="0.1341" style="stop-color:#22A3EC;stop-opacity:0"/>
				<stop  offset="0.7095" style="stop-color:#22A3EC"/>
				<stop  offset="1" style="stop-color:#22A3EC;stop-opacity:0"/>
			</linearGradient>
			<polygon class="st21" points="184.7,198.5 184.3,92.1 186,92.1 186.4,198.5 			"/>
		</g>
		<g class="st22">
			
				<rect x="184.7" y="204.7" transform="matrix(1 -2.840991e-03 2.840991e-03 1 -0.5891 0.528)" class="st12" width="1.7" height="5.9"/>
		</g>
		<g>
			<linearGradient id="SVGID_13_" gradientUnits="userSpaceOnUse" x1="167.9282" y1="102.2189" x2="167.9282" y2="208.5982">
				<stop  offset="0.2011" style="stop-color:#22A3EC;stop-opacity:0"/>
				<stop  offset="0.6313" style="stop-color:#22A3EC"/>
				<stop  offset="0.986" style="stop-color:#22A3EC;stop-opacity:0"/>
			</linearGradient>
			<polygon class="st23" points="167.3,208.6 166.9,102.2 168.6,102.2 169,208.6 			"/>
		</g>
		<g class="st22">
			
				<rect x="167.3" y="214.8" transform="matrix(1 -2.840991e-03 2.840991e-03 1 -0.6178 0.4786)" class="st12" width="1.7" height="5.9"/>
		</g>
		<g>
			<linearGradient id="SVGID_14_" gradientUnits="userSpaceOnUse" x1="150.5462" y1="112.2844" x2="150.5462" y2="218.6644">
				<stop  offset="0" style="stop-color:#22A3EC;stop-opacity:0"/>
				<stop  offset="0.2737" style="stop-color:#22A3EC"/>
				<stop  offset="0.8575" style="stop-color:#22A3EC;stop-opacity:0"/>
			</linearGradient>
			<polygon class="st24" points="149.9,218.7 149.5,112.3 151.2,112.3 151.6,218.7 			"/>
		</g>
		<g class="st25">
			
				<rect x="149.9" y="224.8" transform="matrix(1 -2.582721e-03 2.582721e-03 1 -0.5878 0.3902)" class="st12" width="1.7" height="5.9"/>
		</g>
		<g>
			
				<linearGradient id="SVGID_15_" gradientUnits="userSpaceOnUse" x1="2768.4729" y1="122.362" x2="2768.4729" y2="228.7412" gradientTransform="matrix(-1 0 0 1 2901.6182 0)">
				<stop  offset="0" style="stop-color:#22A3EC;stop-opacity:0"/>
				<stop  offset="0.4637" style="stop-color:#22A3EC"/>
				<stop  offset="0.986" style="stop-color:#22A3EC;stop-opacity:0"/>
			</linearGradient>
			<polygon class="st26" points="132.5,228.7 132.1,122.4 133.8,122.4 134.2,228.7 			"/>
		</g>
		<g class="st25">
			
				<rect x="132.5" y="234.9" transform="matrix(1 -2.840991e-03 2.840991e-03 1 -0.6752 0.3799)" class="st12" width="1.7" height="5.9"/>
		</g>
		<linearGradient id="SVGID_16_" gradientUnits="userSpaceOnUse" x1="115.7641" y1="130.9025" x2="115.7641" y2="220.5851">
			<stop  offset="0" style="stop-color:#CCEC22;stop-opacity:0"/>
			<stop  offset="0.7467" style="stop-color:#CCEC22;stop-opacity:0.92"/>
		</linearGradient>
		<polygon class="st27" points="115.2,238.8 114.8,132.4 116.3,132.4 116.8,238.8 		"/>
		<g class="st25">
			
				<rect x="115.2" y="245" transform="matrix(1 -2.841359e-03 2.841359e-03 1 -0.7039 0.3306)" class="st12" width="1.7" height="5.9"/>
		</g>
		<g>
			
				<linearGradient id="SVGID_17_" gradientUnits="userSpaceOnUse" x1="2803.2549" y1="142.5058" x2="2803.2549" y2="248.885" gradientTransform="matrix(-1 0 0 1 2901.6182 0)">
				<stop  offset="0" style="stop-color:#22A3EC;stop-opacity:0"/>
				<stop  offset="0.4637" style="stop-color:#22A3EC"/>
				<stop  offset="0.986" style="stop-color:#22A3EC;stop-opacity:0"/>
			</linearGradient>
			<polygon class="st28" points="97.7,248.9 97.3,142.5 99,142.5 99.4,248.9 			"/>
		</g>
		<g class="st25">
			
				<rect x="97.8" y="255.1" transform="matrix(1 -2.840991e-03 2.840991e-03 1 -0.7326 0.2812)" class="st12" width="1.7" height="5.9"/>
		</g>
		<g>
			
				<linearGradient id="SVGID_18_" gradientUnits="userSpaceOnUse" x1="2820.637" y1="152.5719" x2="2820.637" y2="258.9512" gradientTransform="matrix(-1 0 0 1 2901.6182 0)">
				<stop  offset="0" style="stop-color:#22A3EC;stop-opacity:0"/>
				<stop  offset="0.4637" style="stop-color:#22A3EC"/>
				<stop  offset="0.986" style="stop-color:#22A3EC;stop-opacity:0"/>
			</linearGradient>
			<polygon class="st29" points="80.3,259 79.9,152.6 81.6,152.6 82,258.9 			"/>
		</g>
		<g class="st18">
			
				<rect x="80.4" y="265.1" transform="matrix(1 -2.840991e-03 2.840991e-03 1 -0.7612 0.2318)" class="st12" width="1.7" height="5.9"/>
		</g>
		<g>
			
				<linearGradient id="SVGID_19_" gradientUnits="userSpaceOnUse" x1="2838.0386" y1="162.6496" x2="2838.0386" y2="269.0288" gradientTransform="matrix(-1 0 0 1 2901.6182 0)">
				<stop  offset="0" style="stop-color:#22A3EC;stop-opacity:0"/>
				<stop  offset="0.4637" style="stop-color:#22A3EC"/>
				<stop  offset="0.986" style="stop-color:#22A3EC;stop-opacity:0"/>
			</linearGradient>
			<polygon class="st30" points="62.9,269 62.5,162.7 64.2,162.6 64.6,269 			"/>
		</g>
		<g class="st18">
			
				<rect x="63" y="275.2" transform="matrix(1 -2.840991e-03 2.840991e-03 1 -0.7899 0.1824)" class="st12" width="1.7" height="5.9"/>
		</g>
	</g>
	<linearGradient id="SVGID_20_" gradientUnits="userSpaceOnUse" x1="61.2248" y1="194.9954" x2="473.0131" y2="194.9954">
		<stop  offset="0" style="stop-color:#22A3EC"/>
		<stop  offset="0.3141" style="stop-color:#4C82E7;stop-opacity:0.5424"/>
		<stop  offset="0.6865" style="stop-color:#8258E1;stop-opacity:0"/>
	</linearGradient>
	<path class="st31" d="M350.4,128v67.7l-11.9,0.1c-39.9-20.7-87.8-19.7-127,3L140.1,240l-78.9,41.1l0.2-18.8c0,0,35.7-9.7,53.1-45
		c17.4-35.3,38.1-33.4,45.8-47.4c7.7-14,16.9-58.5,35.7-61c18.8-2.4,29.4,16.9,41.9,36.3c12.5,19.4,35.1,35,53.4,10.3
		C309.7,131,330.8,126.7,350.4,128z"/>
	<g>
		<linearGradient id="SVGID_21_" gradientUnits="userSpaceOnUse" x1="59.8379" y1="185.6089" x2="351.98" y2="185.6089">
			<stop  offset="0" style="stop-color:#E8CCF0;stop-opacity:0.2"/>
			<stop  offset="0.3855" style="stop-color:#E8CCF0"/>
			<stop  offset="0.454" style="stop-color:#E1C4EF;stop-opacity:0.8504"/>
			<stop  offset="0.5602" style="stop-color:#CEAEEC;stop-opacity:0.6186"/>
			<stop  offset="0.6907" style="stop-color:#AE8BE8;stop-opacity:0.3336"/>
			<stop  offset="0.8394" style="stop-color:#8359E1;stop-opacity:9.034276e-03"/>
			<stop  offset="0.8436" style="stop-color:#8258E1;stop-opacity:0"/>
		</linearGradient>
		<path class="st32" d="M61.5,264c-0.7,0-1.4-0.5-1.6-1.2c-0.2-0.9,0.3-1.8,1.1-2c0.3-0.1,35.2-9.9,52-44.1
			c11-22.3,23.1-29.9,32.9-36.1c5.7-3.6,10.3-6.4,13-11.4c2.1-3.8,4.3-9.9,6.8-17c6.9-19.1,15.5-43,30.1-44.8
			c18.3-2.4,29.1,14.5,40.5,32.4c1,1.5,2,3.1,3,4.6c8.8,13.6,20.1,21.9,30.2,22.2c7.5,0.3,14.4-3.8,20.5-12
			c20.5-27.6,44.3-29.4,60.4-28.3c0.9,0.1,1.6,0.8,1.5,1.7c-0.1,0.9-0.8,1.6-1.7,1.5c-15.3-1-38,0.7-57.6,27
			c-6.8,9.1-14.6,13.6-23.2,13.3c-11.2-0.4-23.4-9.2-32.8-23.7c-1-1.6-2-3.1-3-4.7c-11.3-17.7-21.1-33-37.4-30.9
			c-12.6,1.6-21.2,25.4-27.4,42.7c-2.6,7.2-4.8,13.4-7,17.4c-3.1,5.7-8.2,8.9-14.1,12.6c-9.4,5.9-21.1,13.3-31.7,34.7
			c-17.5,35.6-53.7,45.7-54.1,45.8C61.7,264,61.6,264,61.5,264z"/>
	</g>
	<linearGradient id="SVGID_22_" gradientUnits="userSpaceOnUse" x1="224.4059" y1="401.4914" x2="90.1469" y2="335.414">
		<stop  offset="0" style="stop-color:#1C1C23"/>
		<stop  offset="0.7663" style="stop-color:#292933;stop-opacity:0"/>
	</linearGradient>
	<polygon class="st33" points="219.1,376.1 207,359 93.8,336.8 79.1,363.9 186.5,384.2 180.3,374.5 	"/>
	<linearGradient id="SVGID_23_" gradientUnits="userSpaceOnUse" x1="364.903" y1="370.2051" x2="237.3345" y2="307.4207">
		<stop  offset="0" style="stop-color:#1C1C23"/>
		<stop  offset="0.7663" style="stop-color:#292933;stop-opacity:0"/>
	</linearGradient>
	<polygon class="st34" points="359.6,346.7 356.5,332.8 257.9,317.7 226.5,335.3 	"/>
	<g class="st35">
		<g>
			<path class="st36" d="M66.1,298.1c-0.3,0-0.6-0.2-0.7-0.4c-0.2-0.4-0.1-0.9,0.3-1.2l43.2-25c0.4-0.2,0.9-0.1,1.2,0.3
				c0.2,0.4,0.1,0.9-0.3,1.2l-43.2,25C66.4,298,66.2,298.1,66.1,298.1z"/>
		</g>
		<g>
			<path class="st36" d="M66.1,306c-0.3,0-0.6-0.2-0.7-0.4c-0.1-0.1-0.1-0.3-0.1-0.4c0-0.3,0.2-0.6,0.4-0.7L92.4,289
				c0.4-0.2,0.9-0.1,1.1,0.3c0.1,0.1,0.1,0.3,0.1,0.4c0,0.3-0.2,0.6-0.4,0.7l-26.7,15.5C66.4,306,66.3,306,66.1,306z"/>
		</g>
	</g>
	<g class="st35">
		<g>
			<path class="st36" d="M393.5,94.6c-0.1,0-0.3,0-0.4-0.1l-43.2-25c-0.4-0.2-0.5-0.7-0.3-1.2c0.2-0.4,0.7-0.5,1.2-0.3l43.2,25
				c0.4,0.2,0.5,0.7,0.3,1.2C394.1,94.5,393.8,94.6,393.5,94.6z"/>
		</g>
		<g>
			<path class="st36" d="M393.5,102.6c-0.1,0-0.3,0-0.4-0.1L366.4,87c-0.3-0.2-0.4-0.4-0.4-0.7c0-0.1,0-0.3,0.1-0.4
				c0.2-0.4,0.7-0.5,1.1-0.3l26.7,15.5c0.3,0.2,0.4,0.4,0.4,0.7c0,0.1,0,0.3-0.1,0.4C394.1,102.4,393.8,102.6,393.5,102.6z"/>
		</g>
	</g>
	<g>
		
			<radialGradient id="SVGID_24_" cx="2775.4895" cy="209.3814" r="22.1815" gradientTransform="matrix(-0.4933 0.8725 0.5131 0.2918 1378.3235 -2272.2661)" gradientUnits="userSpaceOnUse">
			<stop  offset="0" style="stop-color:#320D4F;stop-opacity:0.5"/>
			<stop  offset="0.1775" style="stop-color:#503946;stop-opacity:0.5887"/>
			<stop  offset="0.5826" style="stop-color:#929833;stop-opacity:0.7913"/>
			<stop  offset="0.8656" style="stop-color:#BCD527;stop-opacity:0.9328"/>
			<stop  offset="1" style="stop-color:#CCEC22"/>
		</radialGradient>
		<path class="st37" d="M116.6,191.7c-9.1,5.2-16.4,18-16.3,28.4c0,10.4,7.4,14.6,16.4,9.4c9.1-5.2,16.4-18,16.4-28.4
			C133,190.6,125.7,186.4,116.6,191.7L116.6,191.7z"/>
		
			<radialGradient id="SVGID_25_" cx="2775.4951" cy="209.3835" r="7.2082" gradientTransform="matrix(-0.5108 0.8624 0.5852 0.3487 1411.7792 -2255.9067)" gradientUnits="userSpaceOnUse">
			<stop  offset="0" style="stop-color:#320D4F;stop-opacity:0.4"/>
			<stop  offset="8.102732e-03" style="stop-color:#330F4F;stop-opacity:0.4031"/>
			<stop  offset="0.375" style="stop-color:#746D3C;stop-opacity:0.5433"/>
			<stop  offset="0.6723" style="stop-color:#A3B12E;stop-opacity:0.6569"/>
			<stop  offset="0.8857" style="stop-color:#C1DC25;stop-opacity:0.7385"/>
			<stop  offset="0.9944" style="stop-color:#CCEC22;stop-opacity:0.78"/>
		</radialGradient>
		<path class="st38" d="M116.6,203.4c-3.5,2-6.2,6.9-6.2,10.8c0,4,2.8,5.6,6.3,3.6c3.5-2,6.2-6.9,6.2-10.8
			C122.9,203,120.1,201.4,116.6,203.4L116.6,203.4z"/>
		<path class="st39" d="M116.6,207.6c1.4-0.8,2.6-0.2,2.6,1.5c0,1.6-1.2,3.7-2.6,4.5c-1.4,0.8-2.6,0.2-2.6-1.5
			C114.1,210.4,115.2,208.4,116.6,207.6L116.6,207.6z"/>
	</g>
	<linearGradient id="SVGID_26_" gradientUnits="userSpaceOnUse" x1="382.8053" y1="206.5124" x2="314.0767" y2="88.1048">
		<stop  offset="0" style="stop-color:#CCEC22"/>
		<stop  offset="3.531903e-02" style="stop-color:#CADD31;stop-opacity:0.935"/>
		<stop  offset="0.2178" style="stop-color:#C19379;stop-opacity:0.5991"/>
		<stop  offset="0.3692" style="stop-color:#BB5DAE;stop-opacity:0.3204"/>
		<stop  offset="0.4819" style="stop-color:#B73CCF;stop-opacity:0.113"/>
		<stop  offset="0.5433" style="stop-color:#B52FDB;stop-opacity:0"/>
	</linearGradient>
	<path class="st40" d="M359.6,138c-13.6-7.9-24.7-1.6-24.8,14.2c0,15.7,11,34.8,24.6,42.7c13.6,7.9,24.7,1.6,24.7-14.1
		C384.2,165,373.2,145.9,359.6,138L359.6,138z"/>
	<g>
		<linearGradient id="SVGID_27_" gradientUnits="userSpaceOnUse" x1="384.9889" y1="210.2727" x2="334.0562" y2="122.5244">
			<stop  offset="0" style="stop-color:#CCEC22"/>
			<stop  offset="6.500638e-02" style="stop-color:#CADD31;stop-opacity:0.935"/>
			<stop  offset="0.4009" style="stop-color:#C19379;stop-opacity:0.5991"/>
			<stop  offset="0.6796" style="stop-color:#BB5DAE;stop-opacity:0.3204"/>
			<stop  offset="0.887" style="stop-color:#B73CCF;stop-opacity:0.113"/>
			<stop  offset="1" style="stop-color:#B52FDB;stop-opacity:0"/>
		</linearGradient>
		<path class="st41" d="M375.3,212.8c-5,0-10.5-1.7-16.2-5c-19.7-11.4-35.7-39.2-35.7-61.9c0-11.1,3.8-19.5,10.7-23.4
			c6.9-4,16.1-3.1,25.8,2.5c19.7,11.4,35.7,39.2,35.6,61.9c0,11.1-3.8,19.4-10.7,23.4C382,212,378.8,212.8,375.3,212.8z
			 M343.7,121.4c-3.3,0-6.3,0.8-8.9,2.3c-6.5,3.7-10,11.6-10.1,22.2c-0.1,22.3,15.6,49.5,35,60.7c9.3,5.4,17.9,6.3,24.4,2.5
			c6.4-3.7,10-11.6,10-22.2c0.1-22.3-15.6-49.5-34.9-60.7l0,0C353.8,123,348.5,121.4,343.7,121.4z"/>
	</g>
	<g>
		<path class="st42" d="M223.2,372.1c0,0,1,5.3-7,4.8c-4.2-0.3-15.7-14.8-14.8-17.5c1-2.7,5.9-1.3,8,0.4L223.2,372.1z"/>
		<path class="st42" d="M192.5,378.4c0,0,2.4,8.3-5.5,6.6c-7.9-1.7-20-7.2-20.1-12.5s12.4,0,12.4,0L192.5,378.4z"/>
		<path class="st43" d="M135,224.2l-4.7,8.2c-3.7-2.4-8.2-5.1-10.6-6.1c-3.1-1.3-1.5-8.9-1.5-8.9c-0.7-1.2-3.9-6.6-4.1-6.9l4.7,3.6
			C123.3,218.7,130.7,222.3,135,224.2z"/>
		<path class="st43" d="M196.8,201.1c-0.6-3.1-1-4.7-0.5-8.4c0,0-11.2-7.1,0.3-19.5l13.9,7.9c-2.3,8.3-4.5,16.5-3.4,21.3
			c-3.3,2.6-6.4,2.8-9.4,0.8C197.1,202.8,196.7,201.9,196.8,201.1z"/>
		<path class="st44" d="M207.5,196.3c4-6.7,5.6-2.8,9.9-11.3c3.8-7.5-1.2-13.7-6.1-15c0,0-4.3-5-10.1-5.2c-5.4-0.2-10.6,5.4-6,11.6
			c2.3,3.1-1.6,4.2,1.6,5.5c4.3,1.8,0.2,10.7,7.4,12.8L207.5,196.3z"/>
		<linearGradient id="SVGID_28_" gradientUnits="userSpaceOnUse" x1="126.1964" y1="385.9008" x2="294.5294" y2="242.3318">
			<stop  offset="0" style="stop-color:#22A0E9"/>
			<stop  offset="0.2581" style="stop-color:#4F7DE4"/>
			<stop  offset="0.6016" style="stop-color:#8453DD"/>
			<stop  offset="0.8595" style="stop-color:#A539D9"/>
			<stop  offset="1" style="stop-color:#B22FD8"/>
		</linearGradient>
		<path class="st45" d="M223.2,372.1c0,0-8.4,4.4-13.6-9.6l-0.8-14.7l-4.8-52.1l-8.2,28l-2.4,13c0,0-0.1-0.1-0.2-0.1l0.3,41.4
			c-6.8,5.8-14.1-2.9-14.1-2.9l-2.1-48.3c-0.1-0.1-0.3-0.2-0.4-0.2l0.4-5.1l4.7-52l0.2,1.5c0,0,32.6,1,37.7-11l0.3-1.2
			c0,0,0,0,0.1,0l-0.4,61.4l2.5,36.1c0,0.6,0,1.1-0.1,1.6L223.2,372.1z"/>
		<linearGradient id="SVGID_29_" gradientUnits="userSpaceOnUse" x1="185.8249" y1="281.7143" x2="186.3824" y2="212.0219">
			<stop  offset="0" style="stop-color:#D4D7DD"/>
			<stop  offset="1" style="stop-color:#FAFAFC"/>
		</linearGradient>
		<path class="st46" d="M242,232.3c-7.4-19.2-17.4-33.8-27.7-34c-2.7,0-6,0.2-9.6,0.7c-10.1,1.2-20,3.9-29.2,8.3
			c-8.3,3.9-21.2,25.9-40.3,16.7l-5.4,9.4c14.3,14.2,39.4,1.8,48.5-2.3l3.9,39.9c0,0,32.6,1,37.7-11l1.1-4.3
			C221,255.6,246.7,244.4,242,232.3z M225.8,239l-4.1,3.7v-18.9l5.9,7.4C229.8,233.8,228.6,236.9,225.8,239z"/>
	</g>
	<g>
		<linearGradient id="SVGID_30_" gradientUnits="userSpaceOnUse" x1="399.7534" y1="186.6829" x2="362.0089" y2="121.6557">
			<stop  offset="0" style="stop-color:#CCEC22"/>
			<stop  offset="6.500638e-02" style="stop-color:#CADD31;stop-opacity:0.935"/>
			<stop  offset="0.4009" style="stop-color:#C19379;stop-opacity:0.5991"/>
			<stop  offset="0.6796" style="stop-color:#BB5DAE;stop-opacity:0.3204"/>
			<stop  offset="0.887" style="stop-color:#B73CCF;stop-opacity:0.113"/>
			<stop  offset="1" style="stop-color:#B52FDB;stop-opacity:0"/>
		</linearGradient>
		<path class="st47" d="M394.9,189.1C394.9,189.1,394.9,189.1,394.9,189.1c-1.2,0-2.2-1-2.2-2.2c0.1-21.8-15.3-48.5-34.2-59.4
			c-1.1-0.6-1.4-2-0.8-3c0.6-1.1,2-1.4,3-0.8c20.1,11.7,36.5,40,36.4,63.3C397.1,188.1,396.2,189.1,394.9,189.1z"/>
	</g>
	
		<linearGradient id="SVGID_31_" gradientUnits="userSpaceOnUse" x1="-6645.5005" y1="254.7997" x2="-6617.2197" y2="-35.0803" gradientTransform="matrix(1 0 0 1 6671.7744 0)">
		<stop  offset="0" style="stop-color:#D1F122"/>
		<stop  offset="8.435863e-02" style="stop-color:#CFDD36"/>
		<stop  offset="0.4133" style="stop-color:#C6937E"/>
		<stop  offset="0.6862" style="stop-color:#BF5DB3"/>
		<stop  offset="0.8893" style="stop-color:#BB3CD4"/>
		<stop  offset="1" style="stop-color:#BA2FE0"/>
	</linearGradient>
	<path class="st48" d="M0.1,191.8L0,143.4c0-3.2,1.5-6.1,4-7.6L67,95.4c3-1.9,6.7,0.5,6.7,4.3l0.1,48.4c0,3.2-1.5,6.1-4,7.6
		L6.8,196.1C3.8,198,0.1,195.6,0.1,191.8z"/>
	<g>
		<path class="st42" d="M356.4,341.5c0,0-1.9,6.5,4.3,5.2c6.1-1.3,15.5-5.6,15.6-9.8c0.1-4.2-9.6,0-9.6,0L356.4,341.5z"/>
		<path class="st49" d="M365.2,182.2c0,0,5.4,0.2,10.2-2.6l-0.5-1.5c0,0-3.8,1.2-4.2,0.7c-0.4-0.5-1-3.3,8-9.1l-0.4-1.5l-7.8,2.9
			c0,0-4.9-1.2-5.4,0.4l-3.2,5.5C364,178.1,365.2,179.8,365.2,182.2z"/>
		<linearGradient id="SVGID_32_" gradientUnits="userSpaceOnUse" x1="381.5819" y1="174.4555" x2="343.8965" y2="189.6422">
			<stop  offset="0" style="stop-color:#BA2FE0"/>
			<stop  offset="0.2167" style="stop-color:#AD3AE1"/>
			<stop  offset="0.6122" style="stop-color:#8C56E5"/>
			<stop  offset="1" style="stop-color:#6676EA"/>
		</linearGradient>
		<path class="st50" d="M362.8,174.5c0,0-17.7,9.5-27,11.8c0.2,0.2,0.3,0.5,0.4,0.7c0.5,0.8,0.9,1.7,1.3,2.6
			c0.6,1.3,1.2,2.7,1.8,4.1c0.7,1.5,1.4,3,1.7,4.6c9.9-3.7,21.4-12.6,25.5-16.8C370,178,362.8,174.5,362.8,174.5z"/>
		<path class="st42" d="M339.1,331l0.6,0.2c1.9,0.7,2.5,3.1,1.2,4.6c-3.5,3.8-7.8,6.8-13,8.4c-1,0.3-2,0.3-3,0l-1.7-0.5
			c-1.7-0.5-2.7-2.4-2.1-4.2l2.6-2.3l13.4-6.1C337.7,330.8,338.4,330.8,339.1,331z"/>
		<path class="st51" d="M334.2,300.3l-5.3,36.4c-3.3,6.5-7.4,3.9-7.4,3.9c-0.2-1.9-0.8-25.2-1.3-41.8
			C324.7,299.5,329.4,300,334.2,300.3z"/>
		<path class="st51" d="M365.7,299.4l-2.5,40.1c-1,3-3.7,4.4-6.3,3.2l-5.1-42.1C356.5,300.5,361.1,300.1,365.7,299.4z"/>
		<path class="st49" d="M330.1,168.4c0,0,0.8,9.9-1.4,10.9c-2.2,1,11.2,1.6,11.2,1.6l1.3-7.3c0,0,10.4,2.2,6.2-17.8
			S330.1,168.4,330.1,168.4z"/>
		<linearGradient id="SVGID_33_" gradientUnits="userSpaceOnUse" x1="341.8262" y1="316.1577" x2="342.6202" y2="216.9021">
			<stop  offset="0" style="stop-color:#D4D7DD"/>
			<stop  offset="1" style="stop-color:#FAFAFC"/>
		</linearGradient>
		<path class="st52" d="M367.5,299.1c-15.5,2.5-32.4,1.9-48-0.4c-0.1-8.3-4.2-45-2.1-54.9c0.4-1.7,0.8-3.1,1.2-4.4
			c10.6-0.8,25.5,10.4,31.2-0.6c1.2,6.2,3.1,13.1,6.4,20.2c7.7,16.6,10.2,29.4,10.2,29.4S367.2,293.2,367.5,299.1z"/>
		
			<linearGradient id="SVGID_34_" gradientUnits="userSpaceOnUse" x1="39.4157" y1="104.775" x2="45.1002" y2="46.5087" gradientTransform="matrix(0.9656 -0.2599 0.2599 0.9656 276.0664 96.1354)">
			<stop  offset="0" style="stop-color:#D1F122"/>
			<stop  offset="8.435863e-02" style="stop-color:#CFDD36"/>
			<stop  offset="0.4133" style="stop-color:#C6937E"/>
			<stop  offset="0.6862" style="stop-color:#BF5DB3"/>
			<stop  offset="0.8893" style="stop-color:#BB3CD4"/>
			<stop  offset="1" style="stop-color:#BA2FE0"/>
		</linearGradient>
		<path class="st53" d="M326.3,169.1c0,0,8.1,4.1,13.3-2c0,0-2.9-8,3.4-7c0,0,8.9-6.4,4.5-10c-3.9-3.1-9.7-3.1-14.6-1.1
			c-1.3,0.5-2.3,1.4-3.2,2.5C324.7,158,322.7,164,326.3,169.1z"/>
		
			<linearGradient id="SVGID_35_" gradientUnits="userSpaceOnUse" x1="71.569" y1="182.576" x2="173.3535" y2="182.576" gradientTransform="matrix(0.9951 -9.847216e-02 9.847216e-02 0.9951 197.4322 40.2831)">
			<stop  offset="0" style="stop-color:#6676EA"/>
			<stop  offset="0.3878" style="stop-color:#8C56E5"/>
			<stop  offset="0.7833" style="stop-color:#AD3AE1"/>
			<stop  offset="1" style="stop-color:#BA2FE0"/>
		</linearGradient>
		<path class="st54" d="M352.8,192.6C352.8,192.6,352.8,192.6,352.8,192.6c0.1-2.1-0.6-4.1-2.2-5.3c-6.2-5.1-20.2-13-31.1-9.4
			c-2.2,0.7-2.7,19.9-2.3,22.8c3.4,23.3,2.9,31,1.2,38.8c10.7-0.9,25.8,10.5,31.3-0.8c-2.5-15.7,2.1-26.3,2.1-26.3
			S352.5,199.2,352.8,192.6z"/>
		
			<linearGradient id="SVGID_36_" gradientUnits="userSpaceOnUse" x1="278.1534" y1="184.0647" x2="322.1512" y2="184.0647" gradientTransform="matrix(0.9951 -9.847216e-02 9.847216e-02 0.9951 41.737 55.6896)">
			<stop  offset="0" style="stop-color:#9C48E4"/>
			<stop  offset="0.309" style="stop-color:#8F53E5"/>
			<stop  offset="0.8737" style="stop-color:#6E6FE9"/>
			<stop  offset="1" style="stop-color:#6676EA"/>
		</linearGradient>
		<path class="st55" d="M344.7,187.7c0.3-1.6,1.2-3.7,2.8-3.5c0.9,0.1,1.6,1,2.1,1.8c7.4,11,13.8,22.8,18.8,35
			c1.4,3.4,2.7,7.4,0.8,10.5c-1.7,2.8-5.4,3.8-8.6,3.7c-3.3,0-6.6-0.8-9.8-0.2c-0.1-2.1-0.1-4.2-0.2-6.3c2.1,0.8,4.6-0.5,5.6-2.6
			c1-2,0.5-4.5-0.7-6.4c-1.5-2.3-3.8-2.7-5.8-4.2c-2.1-1.6-2.9-5-3.6-7.4C344.1,201.5,343.6,194.5,344.7,187.7z"/>
		<path class="st49" d="M344.3,234.3c1.2,0.4,2.3,0.7,3.6,0.6c1.2-0.1,2.4-0.7,2.9-1.9c0.4-1,0.4-4.8-1-4.8c-0.3,0-1.1,0.3-1.3,0.7
			c-0.4,0.7-0.2,1.9-0.8,2.6C346.5,233,344.1,231.7,344.3,234.3z"/>
		
			<linearGradient id="SVGID_37_" gradientUnits="userSpaceOnUse" x1="1365.447" y1="139.9583" x2="1359.4226" y2="49.0905" gradientTransform="matrix(-0.988 -0.1542 -0.1542 0.988 1687.3046 277.9135)">
			<stop  offset="0" style="stop-color:#CDED22"/>
			<stop  offset="0.1777" style="stop-color:#C7BF4F"/>
			<stop  offset="0.4378" style="stop-color:#C0828B"/>
			<stop  offset="0.6588" style="stop-color:#BB55B7"/>
			<stop  offset="0.8292" style="stop-color:#B739D2"/>
			<stop  offset="0.9285" style="stop-color:#B62FDC"/>
		</linearGradient>
		<path class="st56" d="M327.8,191.9c-1.3,1.4-13.5,4.2-15.6-0.8c-2-4.7-0.3-6.3,2.6-7.8c2.7-1.4,2.2-5.6,1.6-8.5
			c-0.7-3.9-0.6-8.9,1.5-13.2c2.7-5.5,5.5-6.6,11.1-6.2c5.5,0.4,3.1,5.3-0.2,7.9c-2.7,2.1-1.2,7,0.6,13.2
			C332,184.6,329.8,189.6,327.8,191.9z"/>
		
			<linearGradient id="SVGID_38_" gradientUnits="userSpaceOnUse" x1="834.7013" y1="163.9296" x2="834.7961" y2="152.0717" gradientTransform="matrix(-1 0 0 1 1164.4421 0)">
			<stop  offset="0.1936" style="stop-color:#7D73CA"/>
			<stop  offset="0.8746" style="stop-color:#6D6F80"/>
		</linearGradient>
		<path class="st57" d="M329.7,162.7c0.3-1.7-0.8-6.7-2.5-7.2c-1.7-0.4,1.6-1.1,1.6-1.1s2.6-1.4,3.5,3.4
			C333.4,163.2,329.7,162.7,329.7,162.7z"/>
	</g>
</g>
</svg>
